<svg width="73" height="92" viewBox="0 0 73 92" fill="none" xmlns="http://www.w3.org/2000/svg">
<path d="M28.0285 0C24.7376 0 22.0285 2.70909 22.0285 6V10H2.02849C1.76346 9.99625 1.50034 10.0452 1.2544 10.144C1.00846 10.2429 0.784621 10.3896 0.595881 10.5757C0.407142 10.7618 0.257269 10.9835 0.154974 11.228C0.0526786 11.4725 0 11.7349 0 12C0 12.2651 0.0526786 12.5275 0.154974 12.772C0.257269 13.0165 0.407142 13.2382 0.595881 13.4243C0.784621 13.6104 1.00846 13.7571 1.2544 13.856C1.50034 13.9548 1.76346 14.0037 2.02849 14H4.02849V86C4.02849 89.308 6.72049 92 10.0285 92H62.0285C65.3365 92 68.0285 89.308 68.0285 86V14H70.0285C70.2935 14.0037 70.5566 13.9548 70.8026 13.856C71.0485 13.7571 71.2724 13.6104 71.4611 13.4243C71.6498 13.2382 71.7997 13.0165 71.902 12.772C72.0043 12.5275 72.057 12.2651 72.057 12C72.057 11.7349 72.0043 11.4725 71.902 11.228C71.7997 10.9835 71.6498 10.7618 71.4611 10.5757C71.2724 10.3896 71.0485 10.2429 70.8026 10.144C70.5566 10.0452 70.2935 9.99625 70.0285 10H50.0285V6C50.0285 2.70909 47.3194 0 44.0285 0H28.0285ZM28.0285 4H44.0285C45.1376 4 46.0285 4.89091 46.0285 6V10H26.0285V6C26.0285 4.89091 26.9194 4 28.0285 4ZM24.0285 24C25.1325 24 26.0285 24.896 26.0285 26V76C26.0285 77.106 25.1325 78 24.0285 78C22.9245 78 22.0285 77.106 22.0285 76V26C22.0285 24.896 22.9245 24 24.0285 24ZM36.0285 24C37.1325 24 38.0285 24.896 38.0285 26V76C38.0285 77.106 37.1325 78 36.0285 78C34.9245 78 34.0285 77.106 34.0285 76V26C34.0285 24.896 34.9245 24 36.0285 24ZM48.0285 24C49.1345 24 50.0285 24.896 50.0285 26V76C50.0285 77.106 49.1345 78 48.0285 78C46.9225 78 46.0285 77.106 46.0285 76V26C46.0285 24.896 46.9225 24 48.0285 24Z" fill="white"/>
</svg>
